<svg width="25" height="25" viewBox="0 0 25 25" fill="none" xmlns="http://www.w3.org/2000/svg">
<g clip-path="url(#clip0_1326_20604)">
<path d="M22.8668 11.5911H20.8268C20.4668 7.78114 17.4268 4.73114 13.6168 4.38114V2.34114C13.6168 1.93114 13.2768 1.59114 12.8668 1.59114C12.4568 1.59114 12.1168 1.93114 12.1168 2.34114V4.38114C8.30682 4.74114 5.25682 7.78114 4.90682 11.5911H2.86682C2.45682 11.5911 2.11682 11.9311 2.11682 12.3411C2.11682 12.7511 2.45682 13.0911 2.86682 13.0911H4.90682C5.26682 16.9011 8.30682 19.9511 12.1168 20.3011V22.3411C12.1168 22.7511 12.4568 23.0911 12.8668 23.0911C13.2768 23.0911 13.6168 22.7511 13.6168 22.3411V20.3011C17.4268 19.9411 20.4768 16.9011 20.8268 13.0911H22.8668C23.2768 13.0911 23.6168 12.7511 23.6168 12.3411C23.6168 11.9311 23.2768 11.5911 22.8668 11.5911ZM12.8668 15.4611C11.1468 15.4611 9.74682 14.0611 9.74682 12.3411C9.74682 10.6211 11.1468 9.22114 12.8668 9.22114C14.5868 9.22114 15.9868 10.6211 15.9868 12.3411C15.9868 14.0611 14.5868 15.4611 12.8668 15.4611Z" fill="#1A56DB"/>
</g>
<defs>
<clipPath id="clip0_1326_20604">
<rect width="24" height="24" fill="white" transform="translate(0.866821 0.341141)"/>
</clipPath>
</defs>
</svg>
